HIERARCHY
ROOT hip
{
	OFFSET 0.000000 0.000000 0.000000 
	CHANNELS 6 Xposition Yposition Zposition Xrotation Zrotation Yrotation
	JOINT abdomen
	{
		OFFSET 0.000000 3.402643 0.000000 
		CHANNELS 3 Xrotation Zrotation Yrotation
		JOINT chest
		{
			OFFSET 0.000000 8.438565 -0.680529 
			CHANNELS 3 Xrotation Zrotation Yrotation
			JOINT neck
			{
				OFFSET 0.000000 10.207942 -0.272212 
				CHANNELS 3 Xrotation Zrotation Yrotation
				JOINT head
				{
					OFFSET 0.000000 3.130431 0.000000 
					CHANNELS 3 Xrotation Zrotation Yrotation
					End Site
					{
						OFFSET 0.000000 3.130435 0.000000 
					}
				}
			}
			JOINT lCollar
			{
				OFFSET 3.470700 6.669187 -0.816635 
				CHANNELS 3 Yrotation Zrotation Xrotation
				JOINT lShldr
				{
					OFFSET 3.198488 0.000000 0.000000 
					CHANNELS 3 Zrotation Yrotation Xrotation
					JOINT lForeArm
					{
						OFFSET 10.139888 0.000000 0.000000 
						CHANNELS 3 Yrotation Zrotation Xrotation
						JOINT lHand
						{
							OFFSET 8.370511 0.000000 0.000000 
							CHANNELS 3 Zrotation Yrotation Xrotation
							End Site
							{
								OFFSET 4.083176 0.000000 0.000000 
							}
						}
					}
				}
			}
			JOINT rCollar
			{
				OFFSET -3.470700 6.669187 -0.816635 
				CHANNELS 3 Yrotation Zrotation Xrotation
				JOINT rShldr
				{
					OFFSET -3.198488 0.000000 0.000000 
					CHANNELS 3 Zrotation Yrotation Xrotation
					JOINT rForeArm
					{
						OFFSET -10.139888 0.000000 0.000000 
						CHANNELS 3 Yrotation Zrotation Xrotation
						JOINT rHand
						{
							OFFSET -8.370511 0.000000 0.000000 
							CHANNELS 3 Zrotation Yrotation Xrotation
							End Site
							{
								OFFSET -4.083176 0.000000 0.000000 
							}
						}
					}
				}
			}
		}
	}
	JOINT lThigh
	{
		OFFSET 5.308129 -1.633274 1.361059 
		CHANNELS 3 Xrotation Zrotation Yrotation
		JOINT lShin
		{
			OFFSET -2.041588 -20.007561 0.000000 
			CHANNELS 3 Xrotation Zrotation Yrotation
			JOINT lFoot
			{
				OFFSET 0.000000 -19.190928 -1.224953 
				CHANNELS 3 Xrotation Yrotation Zrotation
				End Site
				{
					OFFSET 0.000000 -2.449906 4.627600 
				}
			}
		}
	}
	JOINT rThigh
	{
		OFFSET -5.308129 -1.633274 1.361059 
		CHANNELS 3 Xrotation Zrotation Yrotation
		JOINT rShin
		{
			OFFSET 2.041588 -20.007561 0.000000 
			CHANNELS 3 Xrotation Zrotation Yrotation
			JOINT rFoot
			{
				OFFSET 0.000000 -19.190928 -1.224953 
				CHANNELS 3 Xrotation Yrotation Zrotation
				End Site
				{
					OFFSET 0.000000 -2.449906 4.627600 
				}
			}
		}
	}
}
MOTION
Frames: 15
Frame Time: 0.033359
1.339044 44.450375 2.121940 8.043277 1.346099 2.754752 5.026689 0.643979 2.373226 -6.180127 -5.249462 -2.364189 -12.000000 0.000000 0.000000 -4.102745 -0.272683 -4.257904 0.172302 -11.848383 3.517568 -75.187134 28.487272 -11.566134 -58.949783 0.784262 0.256881 -17.538252 52.056725 -16.860857 -0.534533 20.582478 2.641313 62.732422 -30.617910 3.196728 68.058167 -0.441720 0.565907 -24.384056 -69.983597 35.081284 -6.509140 0.399527 0.380811 12.426421 -6.091706 -1.609084 -2.891101 -4.820721 -8.520376 -1.700113 -8.803163 -19.168507 11.938357 5.504533 0.949075 -5.705709 -0.456536 14.269118 
1.662609 44.433830 2.366954 8.041327 1.219550 2.490917 5.110845 0.556167 2.363454 -6.277430 -4.908160 -2.304048 -12.000000 0.000000 0.000000 -4.277084 -0.438322 -4.111506 0.020464 -11.857924 3.644778 -75.347954 27.876501 -11.907972 -57.458298 0.802238 0.372970 -15.430722 47.928432 -14.457297 -0.407038 20.588612 2.850099 63.059082 -30.535069 2.517646 68.143661 -0.343849 0.516419 -25.260950 -70.771767 35.570549 -6.305745 0.205250 0.746792 12.765868 -6.083174 -1.678622 -3.049818 -4.323642 -8.601948 -2.275897 -9.055732 -18.965424 13.009781 5.452388 1.309851 -5.928064 -0.340872 13.988822 
1.998805 44.392483 2.632411 8.045424 0.975838 2.207376 5.204716 0.468358 2.343832 -6.375718 -4.469534 -2.145864 -12.000000 0.000000 0.000000 -4.450554 -0.613688 -4.062790 -0.053689 -11.872726 3.742377 -75.723282 27.457073 -12.373425 -56.141850 0.757689 0.467929 -13.726692 44.410217 -12.314567 -0.337520 20.592350 2.949687 63.261032 -30.494158 2.022711 68.317139 -0.327079 0.433096 -25.537518 -71.434044 35.405540 -6.099677 0.009750 1.092304 13.033526 -6.134346 -1.727112 -3.249587 -3.940698 -8.626351 -2.783523 -9.241922 -18.738569 13.875804 5.496812 1.476169 -6.022964 -0.444685 13.969073 
2.294834 44.334591 2.877413 7.980350 0.917441 1.943736 5.191542 0.400080 2.255941 -6.477243 -4.128358 -1.997562 -12.000000 0.000000 0.000000 -4.627274 -0.613755 -3.974904 -0.119038 -11.867668 3.849730 -76.021919 27.289406 -12.769605 -55.348572 0.681378 0.399794 -12.807449 42.664631 -11.086614 -0.351025 20.503990 3.047490 63.164505 -30.394745 2.052392 68.495186 -0.424517 0.487037 -25.220436 -71.726875 34.852032 -5.888173 -0.194761 1.446372 13.381025 -6.132291 -1.700986 -3.474836 -3.915052 -8.703896 -3.095834 -9.233370 -18.456570 14.464784 5.504433 1.373028 -6.096852 -0.535249 13.943521 
2.497277 44.280846 3.067729 7.865729 1.034608 1.865635 5.188029 0.312260 2.246167 -6.386905 -4.040326 -2.075486 -12.000000 0.000000 0.000000 -4.894413 -0.438468 -3.838077 -0.196668 -11.872944 3.859470 -76.137550 27.378675 -12.914346 -55.073593 0.599107 0.352242 -12.861320 42.701958 -11.004424 -0.356023 20.415718 3.047499 63.183838 -29.963879 2.273559 68.497513 -0.512149 0.537238 -24.585865 -71.558624 34.378830 -5.622226 -0.439276 1.912379 13.731338 -6.122214 -1.644824 -3.819142 -4.041961 -8.515283 -3.583569 -9.328480 -17.901802 15.062468 5.427374 1.192238 -6.317197 -0.511379 13.824875 
2.567525 44.218815 3.171796 7.674694 1.210342 1.797299 5.193864 0.204909 2.324239 -6.214363 -4.030312 -2.173587 -12.000000 0.000000 0.000000 -5.160038 -0.272864 -3.710988 -0.202587 -11.785252 3.859463 -76.250328 27.544327 -13.035432 -55.073956 0.622155 0.363422 -12.844505 43.173031 -11.253998 -0.339867 20.416252 2.957527 63.235664 -29.320978 2.525511 68.497635 -0.512829 0.540817 -23.940893 -71.295601 33.887947 -5.279649 -0.644295 2.420977 14.006360 -6.161680 -1.557353 -4.300842 -4.141825 -8.133562 -4.159805 -9.421369 -17.529873 15.963488 5.288770 1.379601 -6.517924 -0.692917 13.913033 
2.507535 44.152653 3.142900 7.348550 1.513036 1.660867 5.278170 0.117092 2.314468 -6.121724 -4.118085 -2.193771 -12.000000 0.000000 0.000000 -5.601448 -0.097474 -3.505871 -0.115501 -11.779301 3.839963 -76.147179 27.715919 -12.908197 -55.083981 0.759786 0.335373 -12.207946 43.277412 -11.046104 -0.399942 20.412979 2.857945 63.076714 -28.664661 2.814157 68.845482 -0.442298 0.433635 -24.227570 -71.337746 34.088459 -5.150996 -0.858647 2.847075 14.445760 -6.161873 -1.510518 -4.694225 -4.210504 -7.827859 -4.706676 -9.527637 -17.295500 17.188877 5.221983 1.631603 -6.850176 -1.038362 14.029356 
2.271594 44.111309 2.796008 6.961848 2.001383 1.368059 5.714763 0.048792 2.197273 -6.032328 -4.205602 -2.301630 -12.000000 0.000000 0.000000 -6.480690 0.078016 -3.027341 -0.047949 -11.960430 3.742714 -75.657234 27.790316 -12.887927 -54.898777 0.675651 0.376241 -10.930001 43.103519 -10.262249 -0.497473 20.408188 2.857930 62.812721 -27.784910 3.424386 69.369911 -0.372629 0.330411 -24.437798 -71.559814 34.056484 -5.186580 -1.102868 3.314447 14.894250 -6.090688 -1.690184 -4.861476 -4.046504 -7.641233 -5.536425 -9.752480 -16.879879 18.521076 5.272135 1.693429 -7.334921 -1.128786 13.921715 
2.014427 44.069958 2.186298 6.585693 2.480101 0.987517 6.577263 -0.146407 1.865228 -6.030490 -4.293092 -2.409489 -12.000000 0.000000 0.000000 -7.790947 0.146370 -2.265618 -0.130202 -12.044144 3.752467 -75.356926 27.303473 -13.706952 -54.811600 0.606184 0.433343 -8.564698 42.395485 -9.402808 -0.557567 20.405323 2.760103 62.574615 -26.496475 4.300142 69.987167 -0.430930 0.394505 -24.888512 -71.802994 34.143967 -5.361640 -1.317516 3.764329 15.340591 -5.985867 -1.883888 -5.056413 -3.890225 -7.776999 -6.629507 -10.180657 -16.349266 20.186480 5.290698 1.878668 -7.856885 -1.398098 13.754477 
1.855611 44.012062 1.449489 6.147420 2.900190 0.674941 7.784511 -0.322155 1.503883 -6.119623 -4.458896 -2.429725 -12.000000 0.000000 0.000000 -9.725288 -0.185519 -0.996120 -0.420319 -12.066414 4.084506 -75.951569 26.362631 -16.448700 -55.339085 0.587890 0.444332 -4.940115 40.848190 -9.124339 -0.564796 20.316975 2.767956 62.362961 -24.850973 4.766208 70.514671 -0.401405 0.404067 -25.129374 -71.756393 33.966869 -5.871855 -1.463576 3.950204 16.208521 -5.978767 -2.040266 -5.441195 -3.498865 -8.045223 -8.211793 -10.866127 -15.658646 22.747526 5.232800 2.040900 -7.886451 -2.072814 13.480804 
1.693340 43.945911 0.502218 5.697594 3.447103 0.557982 9.186916 -0.546737 1.289097 -6.198456 -4.634452 -2.449989 -12.000000 0.000000 0.000000 -12.272598 -1.220456 1.152498 -1.032650 -12.041491 4.552950 -77.446663 25.283306 -21.484575 -56.040817 0.565832 0.381869 -0.269502 38.790939 -9.615665 -0.356420 19.965931 3.072913 62.559425 -23.097355 4.705985 70.874161 -0.397331 0.329673 -24.861551 -71.190979 33.347359 -6.997559 -1.640047 4.090868 17.643845 -6.008239 -2.049214 -5.887721 -3.430355 -8.264114 -10.331736 -11.454453 -14.911299 25.820793 4.998278 2.239286 -7.414116 -3.025791 13.177971 
1.492897 43.813576 -0.631195 5.310583 3.925501 0.685333 10.765900 -0.849471 1.035187 -6.286508 -4.819759 -2.470282 -12.000000 0.000000 0.000000 -15.197968 -2.767181 3.852121 -1.727942 -11.858469 5.049050 -79.271858 23.626553 -27.188940 -56.754623 0.816801 0.347992 4.804144 36.722584 -10.403445 0.066040 19.298611 3.522321 63.124062 -21.278656 4.344685 71.059517 -0.479929 0.301243 -24.677654 -70.239426 32.985294 -8.856487 -1.884068 4.259199 19.934792 -5.978375 -2.149251 -5.816391 -3.880277 -8.360985 -12.643686 -11.773077 -13.890719 28.897932 4.813011 2.779104 -6.817676 -4.558414 12.935498 
1.249916 43.677128 -1.811108 4.987735 4.237422 1.155688 12.332913 -1.025333 0.605547 -6.365941 -4.995340 -2.480871 -12.000000 0.000000 0.000000 -18.072990 -4.280593 6.316175 -2.393346 -11.600502 5.641201 -80.331482 21.530079 -31.534792 -57.722324 0.805054 0.385921 10.139854 34.093132 -10.805691 0.557712 18.645180 4.097224 63.650909 -20.235577 3.909856 70.971703 -0.490158 0.302590 -24.677536 -68.913864 32.043610 -11.005761 -1.893922 4.307794 22.667156 -5.890766 -2.415762 -4.694135 -4.293881 -8.445524 -15.907418 -11.796032 -11.591252 32.691357 4.735786 2.915493 -4.588686 -6.443826 13.250833 
1.004050 43.635792 -2.881515 4.806305 4.421016 2.047737 13.702230 -1.035156 -0.058761 -6.451092 -5.082767 -2.579018 -12.000000 0.000000 0.000000 -20.242630 -5.235490 7.727173 -2.998239 -11.255600 6.134949 -79.895119 19.105480 -32.220753 -59.038105 0.661066 0.306474 15.258646 30.718079 -10.163903 1.136234 18.431782 4.735494 63.596664 -21.556974 4.348957 70.874435 -0.417940 0.336074 -26.461288 -67.464874 30.816273 -13.020853 -1.884465 3.858754 24.870291 -5.653568 -2.687943 -2.702771 -4.407992 -8.465445 -20.077520 -11.210612 -8.170134 37.102886 4.471883 3.047589 -0.224272 -8.912427 14.737227 
0.810454 43.685425 -3.684115 4.739080 4.473922 3.536726 14.879924 -0.986188 -0.966990 -6.539053 -5.179626 -2.746123 -12.000000 0.000000 0.000000 -21.146130 -5.469983 7.553978 -3.446425 -10.719416 6.531299 -77.703781 15.906260 -27.339867 -61.060688 0.721359 0.335513 19.945482 26.490093 -7.753276 1.799818 18.689171 5.338184 62.824150 -25.233740 6.054032 70.778587 -0.410956 0.408456 -30.081095 -66.169746 29.405426 -14.606997 -2.128336 2.621934 26.097086 -5.511000 -2.857003 -0.650989 -4.439919 -8.915528 -23.395411 -10.730851 -5.961876 40.453892 4.286685 3.521374 4.910327 -10.793182 16.125656 
